<?xml version="1.0" encoding="UTF-8"?>
<svg width="96px" height="74px" viewBox="0 0 96 74" version="1.1" xmlns="http://www.w3.org/2000/svg" xmlns:xlink="http://www.w3.org/1999/xlink">
    <!-- Generator: Sketch 52.4 (67378) - http://www.bohemiancoding.com/sketch -->
    <title>back</title>
    <desc>Created with Sketch.</desc>
    <g id="Page-1" stroke="none" stroke-width="1" fill="none" fill-rule="evenodd">
        <g id="back" fill="#FF1655">
            <path d="M89,30.7 L22.3,30.7 L41.6,11.4 C44.1,8.9 44.1,4.9 41.6,2.5 C40.4,1.3 38.8,0.7 37.1,0.7 C35.4,0.7 33.8,1.4 32.6,2.6 L2.6,32.7 C0.1,35.2 0.1,39.2 2.6,41.6 L32.6,71.7 C33.8,72.9 35.4,73.5 37.1,73.5 C38.8,73.5 40.4,72.9 41.6,71.7 C42.8,70.5 43.5,68.9 43.5,67.2 C43.5,65.5 42.8,63.9 41.7,62.7 L22.3,43.3 L89,43.3 C92.5,43.3 95.3,40.5 95.3,37 C95.3,33.5 92.5,30.7 89,30.7 Z" id="Path"></path>
        </g>
    </g>
</svg>