<?xml version="1.0" encoding="UTF-8"?>
<svg width="78px" height="54px" viewBox="0 0 78 54" version="1.1" xmlns="http://www.w3.org/2000/svg" xmlns:xlink="http://www.w3.org/1999/xlink">
    <!-- Generator: Sketch 52.1 (67048) - http://www.bohemiancoding.com/sketch -->
    <title>Shape</title>
    <desc>Created with Sketch.</desc>
    <g id="Page-1" stroke="none" stroke-width="1" fill="none" fill-rule="evenodd" opacity="0.396786644">
        <g id="email" transform="translate(0.000000, -1.000000)" fill="#000000" fill-rule="nonzero">
            <g id="Group" transform="translate(0.000000, 0.637820)">
                <path d="M6,0.36217 C4.8206,0.36217 3.7381,0.72537 2.8125,1.33097 L36.5938,33.331 C38.0736,34.7337 39.9914,34.7336 41.4688,33.331 L75.1875,1.33097 C74.2619,0.72537 73.1794,0.36217 72,0.36217 L6,0.36217 Z M0.375,4.48717 C0.1465,5.14777 0,5.83667 0,6.58097 L0,48.1434 C0,49.4064 0.3517,50.5701 0.9688,51.5497 L24.8438,27.706 L0.375,4.48717 Z M77.625,4.48717 L53.2188,27.6747 L77.0312,51.5497 C77.6483,50.5701 78,49.4064 78,48.1434 L78,6.58097 C78,5.83667 77.8535,5.14777 77.625,4.48717 Z M50.3125,30.456 L44.2188,36.2372 C41.317,38.9923 36.746,38.9884 33.8438,36.2372 L27.75,30.4872 L4.125,54.0497 C4.7159,54.2507 5.3428,54.3622 6,54.3622 L72,54.3622 C72.6572,54.3622 73.2841,54.2507 73.875,54.0497 L50.3125,30.456 Z" id="Shape"></path>
            </g>
        </g>
    </g>
</svg>