<?xml version="1.0" encoding="UTF-8"?>
<svg width="90px" height="80px" viewBox="0 0 90 80" version="1.1" xmlns="http://www.w3.org/2000/svg" xmlns:xlink="http://www.w3.org/1999/xlink">
    <!-- Generator: Sketch 52.1 (67048) - http://www.bohemiancoding.com/sketch -->
    <title>Shape</title>
    <desc>Created with Sketch.</desc>
    <g id="Page-1" stroke="none" stroke-width="1" fill="none" fill-rule="evenodd">
        <g id="caution" transform="translate(0.000000, -1.000000)" fill="#FFFFFF" fill-rule="nonzero">
            <g id="Group" transform="translate(0.000000, 0.637820)">
                <path d="M45,0.36218 C41.741988,0.36218 38.851583,2.29369 37.3125,4.89343 C37.3125,4.89343 2.1997264,64.234552 2.09375,64.42468 C1.0411852,66.313047 0,68.60553 0,71.36218 C0,76.29718 4.0649663,80.36218 9,80.36218 L45,80.36218 L81,80.36218 C85.935034,80.36218 90,76.29718 90,71.36218 C90,68.60548 88.958815,66.31308 87.90625,64.42468 C87.800274,64.23458 52.6875,4.89343 52.6875,4.89343 C51.148417,2.29369 48.258012,0.36218 45,0.36218 Z M45,6.36218 C46.253958,6.36218 46.961872,6.96395 47.625,8.17468 C47.625,8.17468 82.59315,67.25138 82.6875,67.42468 C83.483171,68.88568 84,70.20198 84,71.36218 C84,73.05458 82.692382,74.36218 81,74.36218 L45,74.36218 L9,74.36218 C7.307618,74.36218 6,73.05458 6,71.36218 C6,70.202043 6.516829,68.885719 7.3125,67.42468 C7.406847,67.251437 42.375,8.17468 42.375,8.17468 C43.038128,6.963956 43.746042,6.36218 45,6.36218 Z M44.96875,24.29968 C44.167611,24.3079318 43.4030499,24.6362605 42.8454025,25.2115178 C42.287755,25.7867752 41.983348,26.5611716 42,27.36218 L42,51.36218 C41.9846991,52.4440877 42.5531259,53.4504241 43.4876185,53.9958432 C44.4221112,54.5412622 45.5778888,54.5412622 46.5123815,53.9958432 C47.4468741,53.4504241 48.0153009,52.4440877 48,51.36218 L48,27.36218 C48.0168793,26.5503324 47.7039673,25.7663125 47.1327324,25.1891885 C46.5614974,24.6120645 45.7807281,24.291128 44.96875,24.29968 Z M45,58.36218 C42.79086,58.36218 41,60.15298 41,62.36218 C41,64.57128 42.79086,66.36218 45,66.36218 C47.20914,66.36218 49,64.57128 49,62.36218 C49,60.15298 47.20914,58.36218 45,58.36218 Z" id="Shape"></path>
            </g>
        </g>
    </g>
</svg>