<?xml version="1.0" encoding="UTF-8"?>
<svg width="90px" height="90px" viewBox="0 0 90 90" version="1.1" xmlns="http://www.w3.org/2000/svg" xmlns:xlink="http://www.w3.org/1999/xlink">
    <!-- Generator: Sketch 52.1 (67048) - http://www.bohemiancoding.com/sketch -->
    <title>Shape</title>
    <desc>Created with Sketch.</desc>
    <g id="Page-1" stroke="none" stroke-width="1" fill="none" fill-rule="evenodd" opacity="0.403994606">
        <g id="pass" fill="#000000" fill-rule="nonzero">
            <path d="M82.095,7.908 C71.552,-2.635 54.457,-2.635 43.915,7.908 C37.033,14.789 34.67,24.458 36.775,33.279 C36.829,33.51 36.705,33.783 36.492,33.889 L26.671,38.8 C26.191,39.052 25.863,39.555 25.863,40.136 C25.863,40.548 26.028,40.921 26.296,41.193 L32.13,47.026 C32.298,47.193 32.298,47.466 32.13,47.634 L0.417,79.346 C0.159,79.617 0,79.984 0,80.388 L0,88.492 C0,89.325 0.675,90 1.508,90 L17.636,90 C18.469,90 19.143,89.325 19.143,88.493 L19.145,81.522 C19.145,81.285 19.337,81.092 19.576,81.092 L26.545,81.091 C27.378,81.091 28.053,80.416 28.053,79.583 L28.054,72.613 C28.053,72.376 28.246,72.183 28.484,72.183 L35.454,72.182 C36.287,72.182 36.961,71.507 36.961,70.674 L36.962,63.704 C36.961,63.467 37.098,63.138 37.267,62.969 L42.366,57.87 C42.534,57.702 42.807,57.702 42.975,57.87 L48.844,63.739 C49.113,63.987 49.47,64.138 49.865,64.137 C50.445,64.138 50.949,63.81 51.201,63.328 L56.111,53.506 C56.217,53.293 56.49,53.168 56.722,53.224 C65.542,55.328 75.209,52.966 82.093,46.083 C92.636,35.543 92.636,18.45 82.095,7.908 Z M74.931,24.816 C72.241,27.508 67.877,27.509 65.186,24.817 C62.493,22.124 62.493,17.761 65.185,15.069 C67.875,12.378 72.241,12.377 74.931,15.069 C77.624,17.762 77.621,22.124 74.931,24.816 Z" id="Shape"></path>
        </g>
    </g>
</svg>