<?xml version="1.0" encoding="UTF-8"?>
<svg width="30px" height="30px" viewBox="0 0 30 30" version="1.1" xmlns="http://www.w3.org/2000/svg" xmlns:xlink="http://www.w3.org/1999/xlink">
    <!-- Generator: Sketch 52.4 (67378) - http://www.bohemiancoding.com/sketch -->
    <title>search</title>
    <desc>Created with Sketch.</desc>
    <g id="Page-1" stroke="none" stroke-width="1" fill="none" fill-rule="evenodd" opacity="0.551130022">
        <g id="search" fill="#FFFFFF">
            <g id="Page-1">
                <g id="search">
                    <path d="M11,22 C4.92486775,22 7.77156117e-16,17.0751322 0,11 C-7.77156117e-16,4.92486775 4.92486775,1.11022302e-15 11,0 C17.0751322,-1.11022302e-15 22,4.92486775 22,11 C22,13.9173814 20.8410748,16.7152744 18.7781746,18.7781746 C16.7152744,20.8410748 13.9173814,22 11,22 Z M11,2 C6.02943725,2 2,6.02943725 2,11 C2,15.9705627 6.02943725,20 11,20 C15.9705627,20 20,15.9705627 20,11 C20,6.02943725 15.9705627,2 11,2 Z" id="Shape" fill-rule="nonzero"></path>
                    <path d="M29,30 C28.734197,30.0015368 28.4787188,29.8971865 28.29,29.71 L17.37,18.79 C17.0302232,18.3932397 17.0530677,17.8018058 17.4224368,17.4324368 C17.7918058,17.0630677 18.3832397,17.0402232 18.78,17.38 L29.71,28.29 C29.9984599,28.5760905 30.0851619,29.0082668 29.929371,29.3834815 C29.77358,29.7586962 29.4062651,30.0023626 29,30 Z" id="Path"></path>
                </g>
            </g>
        </g>
    </g>
</svg>